<?xml version="1.0" encoding="UTF-8"?><svg xmlns="http://www.w3.org/2000/svg" xmlns:xlink="http://www.w3.org/1999/xlink" height="153.6" preserveAspectRatio="xMidYMid meet" version="1.0" viewBox="-0.4 0.0 357.8 153.6" width="357.8" zoomAndPan="magnify"><g><g fill="#efe6dd" id="change1_1"><path d="M143.23,153.552c-1.06,0-2.122-.007-3.185-.02-1.657-.021-2.983-1.38-2.964-3.036,.021-1.657,1.405-2.952,3.036-2.964,3.948,.049,7.918,.005,11.855-.136,1.653-.044,3.046,1.235,3.104,2.892,.059,1.655-1.235,3.046-2.892,3.104-2.972,.105-5.985,.159-8.956,.159Zm-15.14-.452c-.061,0-.121-.002-.183-.005-4.017-.241-8.088-.578-12.099-1.003-1.648-.175-2.843-1.651-2.668-3.299,.174-1.648,1.642-2.852,3.299-2.668,3.922,.415,7.9,.745,11.827,.979,1.653,.1,2.914,1.521,2.815,3.175-.096,1.593-1.417,2.82-2.992,2.82Zm35.968-.426c-1.542,0-2.854-1.182-2.986-2.746-.141-1.65,1.084-3.103,2.735-3.243,3.933-.334,7.896-.771,11.781-1.299,1.636-.224,3.153,.927,3.376,2.569,.223,1.642-.927,3.153-2.569,3.376-3.983,.541-8.048,.989-12.08,1.332-.086,.007-.172,.011-.257,.011Zm-59.835-2.1c-.149,0-.301-.011-.454-.034-3.965-.601-7.988-1.304-11.957-2.087-1.626-.321-2.684-1.899-2.362-3.524,.32-1.626,1.898-2.678,3.524-2.362,3.883,.767,7.817,1.454,11.695,2.042,1.638,.248,2.765,1.777,2.516,3.416-.225,1.485-1.504,2.55-2.962,2.55Zm83.611-1.137c-1.414,0-2.673-1.004-2.945-2.444-.307-1.628,.764-3.197,2.392-3.505,3.87-.73,7.765-1.572,11.575-2.502,1.602-.394,3.232,.592,3.625,2.203,.394,1.609-.593,3.232-2.203,3.625-3.912,.955-7.91,1.819-11.884,2.57-.188,.035-.375,.053-.56,.053Zm-107.163-3.507c-.235,0-.474-.028-.711-.086-3.909-.949-7.854-1.998-11.727-3.115-1.592-.46-2.51-2.123-2.051-3.715,.46-1.592,2.119-2.51,3.715-2.051,3.791,1.095,7.653,2.121,11.479,3.051,1.61,.391,2.599,2.014,2.207,3.623-.333,1.372-1.561,2.293-2.912,2.293Zm130.473-2.187c-1.288,0-2.479-.837-2.871-2.134-.479-1.586,.418-3.26,2.005-3.739,3.774-1.14,7.553-2.396,11.23-3.73,1.562-.565,3.278,.238,3.844,1.795,.566,1.558-.238,3.278-1.795,3.845-3.781,1.372-7.665,2.663-11.545,3.835-.289,.087-.581,.129-.868,.129Zm-153.539-4.467c-.315,0-.636-.051-.952-.156-3.8-1.271-7.643-2.646-11.42-4.087-1.549-.59-2.325-2.323-1.734-3.871,.59-1.549,2.32-2.33,3.871-1.734,3.701,1.411,7.465,2.758,11.188,4.003,1.571,.525,2.419,2.226,1.893,3.797-.42,1.255-1.59,2.049-2.845,2.049Zm176.087-3.727c-1.164,0-2.271-.682-2.759-1.82-.652-1.523,.054-3.286,1.577-3.938,3.612-1.547,7.225-3.216,10.735-4.962,1.483-.736,3.283-.135,4.022,1.351,.737,1.484,.133,3.285-1.351,4.022-3.613,1.796-7.329,3.514-11.046,5.104-.385,.165-.785,.243-1.18,.243Zm-198.521-4.824c-.395,0-.796-.078-1.182-.244-3.688-1.581-7.404-3.265-11.045-5.003-1.496-.714-2.129-2.504-1.415-3.999,.714-1.496,2.506-2.128,3.999-1.415,3.569,1.703,7.212,3.354,10.826,4.903,1.522,.652,2.228,2.416,1.574,3.939-.487,1.137-1.595,1.818-2.758,1.818Zm219.993-5.858c-1.041,0-2.054-.543-2.607-1.512-.822-1.438-.323-3.271,1.115-4.094,3.41-1.949,6.804-4.023,10.086-6.163,1.389-.906,3.247-.513,4.151,.874,.905,1.388,.514,3.247-.874,4.151-3.381,2.204-6.874,4.34-10.385,6.347-.47,.269-.981,.396-1.486,.396ZM13.506,120.387c-.471,0-.949-.112-1.396-.347-3.551-1.872-7.121-3.845-10.611-5.863-1.435-.829-1.925-2.665-1.095-4.099,.829-1.434,2.666-1.925,4.099-1.095,3.423,1.979,6.923,3.913,10.404,5.748,1.466,.772,2.028,2.587,1.256,4.053-.538,1.02-1.579,1.603-2.657,1.603Zm261.747-8.621c-.919,0-1.826-.421-2.414-1.217-.985-1.332-.704-3.21,.629-4.195,3.146-2.327,6.274-4.784,9.295-7.304,1.275-1.062,3.166-.889,4.226,.382,1.062,1.272,.891,3.165-.382,4.226-3.11,2.594-6.331,5.124-9.572,7.521-.536,.396-1.161,.588-1.781,.588Zm18.417-15.364c-.801,0-1.599-.318-2.189-.948-1.133-1.208-1.072-3.106,.137-4.24,2.86-2.683,5.683-5.486,8.39-8.335,1.144-1.202,3.043-1.249,4.241-.108,1.201,1.142,1.25,3.04,.108,4.241-2.786,2.932-5.691,5.818-8.636,8.579-.578,.543-1.315,.812-2.051,.812Zm16.531-17.379c-.688,0-1.377-.234-1.941-.714-1.263-1.072-1.417-2.966-.344-4.229,2.529-2.978,5.024-6.082,7.414-9.228,1.002-1.319,2.884-1.574,4.204-.573,1.318,1.003,1.575,2.885,.573,4.204-2.456,3.231-5.02,6.422-7.619,9.481-.594,.698-1.438,1.058-2.287,1.058Zm14.517-19.098c-.58,0-1.167-.168-1.683-.519-1.371-.931-1.727-2.797-.796-4.167,2.195-3.232,4.35-6.586,6.4-9.968,.859-1.417,2.706-1.869,4.121-1.01,1.417,.859,1.868,2.705,1.01,4.121-2.105,3.47-4.314,6.911-6.568,10.228-.58,.854-1.523,1.314-2.484,1.314Zm12.45-20.511c-.481,0-.97-.116-1.423-.361-1.458-.788-2.001-2.607-1.214-4.065,1.861-3.446,3.671-7.001,5.377-10.566,.717-1.496,2.508-2.127,4.001-1.411,1.494,.715,2.126,2.507,1.411,4.001-1.748,3.653-3.602,7.296-5.51,10.828-.543,1.005-1.575,1.575-2.643,1.575Z"/><path d="M357.348 29.627L353.209 0 329.618 18.395 357.348 29.627z"/></g></g></svg>